<svg width="296" height="296" viewBox="0 0 296 296" fill="none" xmlns="http://www.w3.org/2000/svg">
<path fill-rule="evenodd" clip-rule="evenodd" d="M148 296C229.738 296 296 229.738 296 148C296 66.2619 229.738 0 148 0C66.2619 0 0 66.2619 0 148C0 229.738 66.2619 296 148 296ZM148.5 285C224.439 285 286 223.439 286 147.5C286 71.5609 224.439 10 148.5 10C72.5609 10 11 71.5609 11 147.5C11 223.439 72.5609 285 148.5 285Z" fill="#72C387"/>
<path fill-rule="evenodd" clip-rule="evenodd" d="M201.088 39.8732C186.901 33.5035 170.558 29.4561 155.014 29V57.584H155.003V231.161L155 231.162V267.39C174.5 267.39 193 260.676 193 260.196V258.584H193.003V75.5311C200.371 79.6463 207.08 84.8698 212.889 91.0302C220.357 98.9498 226.192 108.263 230.061 118.437C233.93 128.612 235.462 140.401 235.143 151.282H270.909C271.365 135.738 268.793 120.346 263.266 105.811C257.739 91.2758 249.404 77.9716 238.735 66.658C228.066 55.3444 215.274 46.2429 201.088 39.8732ZM94.529 40.0089C108.63 33.462 125.373 29.6524 140.906 29V37.6978H141V229.768H141V266.738C122.192 266.177 105.243 260.457 104.318 259.49V231.947H104.276V74.8675C96.4823 79.1779 89.4228 84.7231 83.3776 91.2983C76.012 99.3096 70.2966 108.693 66.5575 118.913C62.8184 129.134 61.129 139.99 61.5856 150.863H25.9966C25.3442 135.33 27.8623 121.311 33.2038 106.711C38.5453 92.1107 46.7103 78.7055 57.2324 67.2607C67.7546 55.816 80.428 46.5558 94.529 40.0089Z" fill="url(#paint0_linear_236_8)"/>
<defs>
<linearGradient id="paint0_linear_236_8" x1="134.5" y1="107.89" x2="199" y2="210.89" gradientUnits="userSpaceOnUse">
<stop stop-color="#5F95F8"/>
<stop offset="1" stop-color="#F1D766"/>
</linearGradient>
</defs>
</svg>
